<svg xmlns="http://www.w3.org/2000/svg" viewBox="0 0 105.38 21.64"><defs><style>.cls-1{fill:#e50914;}</style></defs><g id="Camada_2" data-name="Camada 2"><g id="Camada_1-2" data-name="Camada 1"><path class="cls-1" d="M0,.3H5A5.34,5.34,0,0,1,8.74,1.42,4.51,4.51,0,0,1,9.92,4.87V6.1c0,2.07-.74,3.42-2.2,4.08v.05a2.37,2.37,0,0,1,1.72,1.29,6.35,6.35,0,0,1,.49,2.79v3.5A13.08,13.08,0,0,0,10,19.19a2.77,2.77,0,0,0,.31,1l-3.41.44a4.09,4.09,0,0,1-.24-.89,13.51,13.51,0,0,1-.06-1.57c0-1.24,0-2.48,0-3.73a2.86,2.86,0,0,0-.47-1.91,1.91,1.91,0,0,0-1.62-.42l-1.16.09q0,4.47,0,8.93L0,21.64ZM4.56,9.15a2.2,2.2,0,0,0,1.51-.59,2.4,2.4,0,0,0,.5-1.69V5.3a2.41,2.41,0,0,0-.4-1.59,1.6,1.6,0,0,0-1.3-.47l-1.52,0c0,2,0,4,0,6Z"/><path class="cls-1" d="M13.47.28h9.14c0,.88,0,1.77,0,2.66L16.81,3c0,1.69,0,3.38,0,5.07l4.6-.19c0,.89,0,1.78,0,2.67l-4.6.26c0,2,0,3.92,0,5.88l5.79-.48c0,.89,0,1.77,0,2.66q-4.57.4-9.13.93Q13.43,10,13.47.28Z"/><path class="cls-1" d="M28.31.26h4.54q1.71,8.93,3.43,17.68l-3.36.18-.6-3.52v.05l-3.81.2c-.21,1.2-.42,2.4-.62,3.6l-3.11.24C26,12.45,27.13,6.32,28.31.26Zm3.62,12Q31.2,7.85,30.47,3.4H30.4q-.73,4.46-1.49,9Z"/><path class="cls-1" d="M40.09,16.9a3.84,3.84,0,0,1-1.26-3.14c0-3.15,0-6.29,0-9.44a4,4,0,0,1,1.27-3.19A5.31,5.31,0,0,1,43.79,0a5.39,5.39,0,0,1,3.67,1.11,4,4,0,0,1,1.27,3.15V6.09l-3.18,0c0-.67,0-1.34,0-2a1.45,1.45,0,0,0-1.68-1.61A1.46,1.46,0,0,0,42.2,4.12q0,4.88,0,9.75c0,1.06.56,1.58,1.68,1.55s1.68-.56,1.68-1.62c0-.88,0-1.77,0-2.66l3.17,0v2.45a4,4,0,0,1-1.27,3.16,5.55,5.55,0,0,1-3.68,1.19A5.2,5.2,0,0,1,40.09,16.9Z"/><path class="cls-1" d="M54.55,2.72h-3.5V.25H61.41V2.74h-3.5q0,7.42,0,14.86l-3.36,0Q54.54,10.14,54.55,2.72Z"/><path class="cls-1" d="M64.21.25h8.87c0,.85,0,1.7,0,2.55l-5.52,0c0,1.64,0,3.27,0,4.91l4.33.09c0,.85,0,1.7,0,2.55-1.44-.05-2.89-.09-4.33-.12,0,2.56,0,5.11,0,7.67l-3.36-.13Q64.23,9,64.21.25Z"/><path class="cls-1" d="M75.89.26h3.35q0,7.86.05,15.71c1.84.12,3.68.26,5.52.41v2.68q-4.43-.42-8.87-.72Q75.91,9.3,75.89.26Z"/><path class="cls-1" d="M87.56.27h3.35q0,9.71,0,19.42c-1.11-.13-2.23-.25-3.34-.36Z"/><path class="cls-1" d="M97.57,10.17Q95.73,5.12,93.87.28H97.4c.76,2.17,1.51,4.38,2.27,6.62h.06c.76-2.18,1.53-4.38,2.3-6.62h3.17q-1.85,5.21-3.67,10.14,1.93,5.45,3.85,11.2c-1.17-.19-2.34-.36-3.51-.53q-1.22-3.81-2.44-7.48h-.06c-.83,2.3-1.65,4.57-2.48,6.8L93.73,20Q95.65,15.2,97.57,10.17Z"/></g></g></svg>